#!OML:ASF H:\Dans Jumps\Project 1\Capture day 1\Session 1\subject.ASF
:FULLY-SPECIFIED
:DEGREES
414
root -0.133594 19.1748 2.00311 4.88088 2.61135 -2.74734
lowerback 12.1518 -0.433987 -0.908955
upperback 5.64733 -0.637911 1.3198
thorax -0.881359 -0.347741 1.96224
lowerneck -11.8462 0.384434 -0.461995
upperneck 25.9435 0.250745 1.48245
head 10.2127 0.238708 0.632661
rclavicle -9.19379e-015 1.49089e-015
rhumerus -19.2974 -16.9555 -82.6714
rradius 25.661
rwrist 34.4058
rhand -20.8281 -25.8774
rfingers 7.12502
rthumb 5.54028 -55.785
lclavicle -9.19379e-015 1.49089e-015
lhumerus -12.2656 8.78628 87.2083
lradius 16.2583
lwrist 13.5394
lhand -25.8431 -11.0174
lfingers 7.12502
lthumb 0.697257 18.9612
rfemur -41.637 -4.44158 22.3411
rtibia 37.7876
rfoot 3.39775 1.58791
rtoes 0.620631
lfemur -42.1208 9.10345 -20.2183
ltibia 34.7647
lfoot -5.84871 -0.0842718
ltoes -23.976
415
root -0.135691 18.9297 2.31073 4.09673 2.52483 -2.70633
lowerback 11.6246 -0.393057 -0.881197
upperback 5.69044 -0.582506 1.20936
thorax -0.555601 -0.3212 1.81828
lowerneck -11.5411 0.33463 -0.486113
upperneck 26.4469 0.149252 1.60252
head 10.3381 0.203699 0.66947
rclavicle -1.05356e-014 -1.03368e-014
rhumerus -19.7002 -17.0034 -82.5559
rradius 25.4826
rwrist 34.6803
rhand -20.8122 -25.7753
rfingers 7.12502
rthumb 5.55564 -55.6825
lclavicle -1.05356e-014 -1.03368e-014
lhumerus -12.5713 8.86668 86.9456
lradius 16.3176
lwrist 13.6694
lhand -25.9421 -11.1119
lfingers 7.12502
lthumb 0.601688 18.867
rfemur -40.1362 -4.05556 21.8395
rtibia 36.293
rfoot 3.71413 1.52561
rtoes -0.133335
lfemur -40.5161 9.05046 -20.068
ltibia 32.7366
lfoot -6.46989 0.437221
ltoes -24.7788
416
root -0.138028 18.6716 2.61832 3.25809 2.42491 -2.68065
lowerback 11.1293 -0.348146 -0.84939
upperback 5.71177 -0.52084 1.1101
thorax -0.269107 -0.290846 1.68478
lowerneck -11.2706 0.290243 -0.509417
upperneck 26.993 0.0575885 1.70823
head 10.487 0.172018 0.70312
rclavicle -7.8023e-015 7.95139e-016
rhumerus -20.0533 -17.0512 -82.4285
rradius 25.2811
rwrist 34.9828
rhand -20.7717 -25.6952
rfingers 7.12502
rthumb 5.59473 -55.6013
lclavicle -7.8023e-015 7.95139e-016
lhumerus -12.8481 8.99476 86.6735
lradius 16.3338
lwrist 13.759
lhand -26.0745 -11.2327
lfingers 7.12502
lthumb 0.473788 18.7466
rfemur -38.6185 -3.62031 21.3755
rtibia 35.078
rfoot 3.96903 1.47447
rtoes -0.965181
lfemur -38.9145 8.91082 -19.8437
ltibia 31.0974
lfoot -7.18479 1.05619
ltoes -25.4968
417
root -0.140929 18.4009 2.92461 2.37487 2.31737 -2.68221
lowerback 10.675 -0.298279 -0.808185
upperback 5.70971 -0.451266 1.03059
thorax -0.0284896 -0.255901 1.56738
lowerneck -11.0499 0.24872 -0.527214
upperneck 27.5682 -0.0261974 1.79082
head 10.6582 0.142306 0.729358
rclavicle 5.86415e-015 -9.93923e-016
rhumerus -20.3609 -17.1055 -82.286
rradius 25.0781
rwrist 35.2637
rhand -20.7193 -25.6568
rfingers 7.12502
rthumb 5.64538 -55.5616
lclavicle 5.86415e-015 -9.93923e-016
lhumerus -13.0778 9.1588 86.406
lradius 16.2943
lwrist 13.834
lhand -26.2324 -11.4356
lfingers 7.12502
lthumb 0.321259 18.5439
rfemur -37.1197 -3.17282 20.9913
rtibia 34.1637
rfoot 4.16778 1.54234
rtoes -1.82665
lfemur -37.3497 8.67664 -19.5468
ltibia 29.8668
lfoot -7.92648 1.72895
ltoes -26.1205
418
root -0.144712 18.1177 3.22839 1.45633 2.21088 -2.71222
lowerback 10.2775 -0.245953 -0.765887
upperback 5.68144 -0.378068 0.977508
thorax 0.154836 -0.218784 1.47804
lowerneck -10.8924 0.207823 -0.545622
upperneck 28.149 -0.103411 1.8505
head 10.8458 0.11336 0.748884
rclavicle -1.54058e-015 6.16232e-015
rhumerus -20.6385 -17.1451 -82.1278
rradius 24.8995
rwrist 35.4681
rhand -20.6808 -25.6658
rfingers 7.12502
rthumb 5.68252 -55.5696
lclavicle -1.54058e-015 6.16232e-015
lhumerus -13.2697 9.37083 86.1558
lradius 16.2096
lwrist 13.8817
lhand -26.4011 -11.6988
lfingers 7.12502
lthumb 0.158394 18.2809
rfemur -35.7028 -2.76085 20.7133
rtibia 33.629
rfoot 4.27859 1.81505
rtoes -2.63615
lfemur -35.8362 8.36821 -19.2064
ltibia 29.0163
lfoot -8.60496 2.38631
ltoes -26.6006
419
root -0.149563 17.8217 3.52882 0.519517 2.11023 -2.77263
lowerback 9.94219 -0.192869 -0.724672
upperback 5.62211 -0.303805 0.953428
thorax 0.2729 -0.180904 1.42062
lowerneck -10.7938 0.16626 -0.580358
upperneck 28.6959 -0.176868 1.90584
head 11.0345 0.0842536 0.770312
rclavicle 2.18663e-014 3.18055e-015
rhumerus -20.8995 -17.1594 -81.9581
rradius 24.7688
rwrist 35.5899
rhand -20.6649 -25.7058
rfingers 7.12502
rthumb 5.69787 -55.6092
lclavicle 2.18663e-014 3.18055e-015
lhumerus -13.4309 9.58978 85.9326
lradius 16.1
lwrist 13.9158
lhand -26.5603 -11.9892
lfingers 7.12502
lthumb 0.00455644 17.9905
rfemur -34.4969 -2.43036 20.5647
rtibia 33.6986
rfoot 3.04903 2.36228
rtoes -3.46083
lfemur -34.4079 8.02261 -18.8536
ltibia 28.5357
lfoot -9.16655 2.96402
ltoes -26.9118
420
root -0.15528 17.5051 3.8276 -0.419812 2.01532 -2.85361
lowerback 9.67138 -0.14372 -0.692319
upperback 5.5289 -0.235419 0.952335
thorax 0.321397 -0.145875 1.39359
lowerneck -10.7425 0.124876 -0.630401
upperneck 29.1662 -0.24666 1.96259
head 11.2054 0.0554288 0.795077
rclavicle 9.29318e-015 1.78906e-015
rhumerus -21.149 -17.1287 -81.7943
rradius 24.6945
rwrist 35.6605
rhand -20.69 -25.7666
rfingers 7.12502
rthumb 5.67368 -55.6707
lclavicle 9.29318e-015 1.78906e-015
lhumerus -13.5621 9.81914 85.7321
lradius 15.9664
lwrist 13.903
lhand -26.6825 -12.2282
lfingers 7.12502
lthumb -0.113452 17.7515
rfemur -33.6471 -2.24639 20.5593
rtibia 34.6218
rfoot 1.26427 3.13159
rtoes -3.89378
lfemur -33.1105 7.70388 -18.5469
ltibia 28.4761
lfoot -9.30088 3.68952
ltoes -28.3893
421
root -0.161641 17.1516 4.12583 -1.33151 1.93358 -2.96468
lowerback 9.4818 -0.104415 -0.649794
upperback 5.39021 -0.179137 0.973637
thorax 0.279022 -0.116265 1.3859
lowerneck -10.7271 0.0888243 -0.693135
upperneck 29.5265 -0.304925 2.01925
head 11.3424 0.030304 0.822762
rclavicle 5.81445e-015 1.98785e-016
rhumerus -21.3825 -17.0586 -81.6429
rradius 24.6769
rwrist 35.7547
rhand -20.7394 -25.852
rfingers 7.12502
rthumb 5.62597 -55.7573
lclavicle 5.81445e-015 1.98785e-016
lhumerus -13.6697 10.0548 85.558
lradius 15.8176
lwrist 13.8043
lhand -26.7612 -12.3496
lfingers 7.12502
lthumb -0.189404 17.6301
rfemur -33.2648 -2.18805 20.6899
rtibia 36.5654
rfoot -1.34648 3.76625
rtoes -3.12792
lfemur -32.107 7.47548 -18.3108
ltibia 29.0335
lfoot -8.44032 4.89725
ltoes -32.7141
422
root -0.167728 16.7835 4.40719 -2.19202 1.91435 -3.10279
lowerback 9.46034 -0.100467 -0.585768
upperback 5.19331 -0.167712 1.01369
thorax 0.0858511 -0.10784 1.39043
lowerneck -10.7181 0.0655039 -0.755864
upperneck 29.7292 -0.341307 2.0692
head 11.4201 0.0137512 0.849397
rclavicle -1.83876e-015 -1.11319e-014
rhumerus -21.5445 -16.9653 -81.5269
rradius 24.677
rwrist 35.9613
rhand -20.8198 -25.9731
rfingers 7.12502
rthumb 5.54834 -55.8805
lclavicle -1.83876e-015 -1.11319e-014
lhumerus -13.7153 10.3725 85.4066
lradius 15.6354
lwrist 13.5209
lhand -26.8091 -12.3614
lfingers 7.12502
lthumb -0.235715 17.6182
rfemur -33.4293 -2.27677 20.9362
rtibia 39.5028
rfoot -4.26892 3.9404
rtoes -1.81197
lfemur -31.6652 7.28811 -18.1232
ltibia 30.5437
lfoot -6.27496 6.40227
ltoes -38.4287
423
root -0.174301 16.431 4.6567 -2.97925 1.96732 -3.26159
lowerback 9.63901 -0.133545 -0.511422
upperback 4.96123 -0.203698 1.07083
thorax -0.251669 -0.122356 1.41229
lowerneck -10.7712 0.0606017 -0.84028
upperneck 29.798 -0.352138 2.14468
head 11.458 0.00923327 0.891412
rclavicle -7.00716e-015 -1.66979e-014
rhumerus -21.521 -16.9255 -81.465
rradius 24.637
rwrist 36.3806
rhand -20.9189 -26.2021
rfingers 7.12502
rthumb 5.45261 -56.1119
lclavicle -7.00716e-015 -1.66979e-014
lhumerus -13.6084 10.814 85.2922
lradius 15.3862
lwrist 13.0137
lhand -26.8677 -12.2746
lfingers 7.12502
lthumb -0.29231 17.7049
rfemur -34.1012 -2.40404 21.2343
rtibia 43.2372
rfoot -6.95123 3.60911
rtoes 0.47729
lfemur -32.005 6.95964 -17.9025
ltibia 33.2792
lfoot -2.99858 7.17709
ltoes -41.3458
424
root -0.184469 16.117 4.86463 -3.65586 2.06404 -3.43712
lowerback 10.0162 -0.185572 -0.470097
upperback 4.72936 -0.266084 1.15209
thorax -0.696169 -0.150426 1.48209
lowerneck -10.923 0.0708442 -0.892957
upperneck 29.711 -0.330234 2.16729
head 11.4546 0.016614 0.911337
rclavicle 1.98785e-015 -1.35174e-014
rhumerus -21.1844 -17.0421 -81.4729
rradius 24.5021
rwrist 37.0864
rhand -21.0335 -26.5954
rfingers 7.12502
rthumb 5.34197 -56.5081
lclavicle 1.98785e-015 -1.35174e-014
lhumerus -13.2505 11.4436 85.2342
lradius 15.0575
lwrist 12.2315
lhand -26.9687 -12.104
lfingers 7.12502
lthumb -0.389872 17.8754
rfemur -35.1812 -2.42254 21.5359
rtibia 47.3829
rfoot -9.07279 2.95641
rtoes 3.87381
lfemur -33.233 6.40675 -17.5791
ltibia 37.231
lfoot -1.13719 6.48603
ltoes -41.1192
425
root -0.199568 15.84 5.03682 -4.21321 2.14586 -3.60136
lowerback 10.5175 -0.232388 -0.508386
upperback 4.55266 -0.327728 1.25302
thorax -1.15032 -0.179331 1.61908
lowerneck -11.1896 0.101701 -0.910592
upperneck 29.4578 -0.267899 2.13569
head 11.4092 0.039663 0.909066
rclavicle -6.16232e-015 -3.18055e-015
rhumerus -20.4799 -17.3465 -81.571
rradius 24.2813
rwrist 38.065
rhand -21.174 -27.1295
rfingers 7.12502
rthumb 5.20634 -57.0455
lclavicle -6.16232e-015 -3.18055e-015
lhumerus -12.6149 12.2175 85.2561
lradius 14.7057
lwrist 11.2826
lhand -27.1502 -11.9422
lfingers 7.12502
lthumb -0.565144 18.0368
rfemur -36.5409 -2.35198 21.8252
rtibia 51.5715
rfoot -10.7235 2.17684
rtoes 6.58202
lfemur -35.2171 5.78546 -17.1985
ltibia 42.0561
lfoot -1.6155 5.56678
ltoes -42.2248
